<?xml version="1.0" ?><!DOCTYPE svg  PUBLIC '-//W3C//DTD SVG 1.1//EN'  'http://www.w3.org/Graphics/SVG/1.1/DTD/svg11.dtd'><svg enable-background="new 0 0 128 128" id="Слой_1" version="1.1" viewBox="0 0 128 128" xml:space="preserve" xmlns="http://www.w3.org/2000/svg" xmlns:xlink="http://www.w3.org/1999/xlink"><g><path d="M102.876,38.935l-38.4-20.813c-0.297-0.162-0.656-0.162-0.953,0l-38.4,20.813   c-0.323,0.175-0.523,0.512-0.523,0.879v46.032c0,0.351,0.184,0.676,0.483,0.856l38.4,23.154C63.643,109.952,63.821,110,64,110   s0.357-0.048,0.517-0.144l38.4-23.154c0.3-0.181,0.483-0.506,0.483-0.856V39.813C103.4,39.446,103.199,39.109,102.876,38.935z    M63.995,59.49l-13.158-7.022l35.921-19.995l13.47,7.301L63.995,59.49z M84.674,31.344L48.801,51.312   c-0.317,0.177-0.514,0.511-0.514,0.874v7.427l-7.6-4.156v-7.482l36.836-20.506L84.674,31.344z M64,20.138l11.441,6.201   L39.436,46.382l-12.021-6.415L64,20.138z M26.6,41.799l12.088,6.451v7.8c0,0.365,0.199,0.702,0.52,0.877l9.6,5.25   c0.15,0.082,0.315,0.123,0.48,0.123c0.177,0,0.353-0.047,0.51-0.14c0.304-0.181,0.49-0.507,0.49-0.86v-6.859L63,61.226v46.003   L26.6,85.281V41.799z M65,107.229V61.22l36.4-19.807v43.869L65,107.229z" fill="#FFFFFF"/><path d="M95.938,74.809l-0.091-5.273l-3.305-0.512l-0.54-1.531l1.709-3.869l-3.217-3.646l-2.893,2.801l-0.904-0.358   l-0.832-4.242l-4.58,0.624l-0.667,4.347l-1.056,0.717l-2.942-1.979l-2.913,4.263l1.824,3.368l-0.536,1.846l-3.216,1.384   l0.091,5.274l3.305,0.511l0.54,1.531l-1.709,3.87l3.217,3.646l2.893-2.801l0.904,0.358l0.832,4.242l4.581-0.625l0.666-4.347   l1.056-0.717l2.942,1.979l2.913-4.263l-1.824-3.367l0.536-1.847L95.938,74.809z M91.671,81.285l-1.104,1.616l-2.416-1.625   l-2.896,1.967l-0.572,3.731l-1.23,0.168l-0.679-3.463l-3.121-1.237l-2.316,2.242l-0.984-1.114l1.512-3.425l-1.201-3.406   l-2.823-0.437l-0.039-2.249l2.852-1.226l1.027-3.541l-1.633-3.017l1.104-1.616l2.416,1.625l2.896-1.965l0.572-3.733l1.23-0.167   l0.679,3.463l3.121,1.237l2.316-2.242l0.984,1.114l-1.512,3.424l1.201,3.406l2.823,0.438l0.039,2.248l-2.852,1.226l-1.027,3.542   L91.671,81.285z" fill="#FFFFFF"/><path d="M84.179,67.777c-0.4,0-0.804,0.062-1.2,0.184c-2.577,0.793-4.294,3.914-3.909,7.104   c0.334,2.774,2.172,4.713,4.47,4.713c0.4,0,0.804-0.062,1.2-0.184c2.577-0.792,4.294-3.913,3.909-7.104   C88.314,69.716,86.476,67.777,84.179,67.777z M84.151,77.683c-1.482,0.461-2.852-0.841-3.096-2.857   c-0.263-2.185,0.887-4.452,2.512-4.952c0.205-0.063,0.411-0.096,0.612-0.096c1.253,0,2.274,1.215,2.484,2.953   C86.926,74.915,85.776,77.184,84.151,77.683z" fill="#FFFFFF"/></g></svg>